<svg xmlns="http://www.w3.org/2000/svg" viewBox="0 0 800 800">
  <defs>
    <linearGradient id="anbauCatGrad" x1="0%" y1="0%" x2="100%" y2="100%">
      <stop offset="0%" style="stop-color:#166534;stop-opacity:1" />
      <stop offset="100%" style="stop-color:#22c55e;stop-opacity:1" />
    </linearGradient>
  </defs>
  
  <!-- Hintergrund -->
  <rect width="800" height="800" fill="url(#anbauCatGrad)" rx="20" />
  
  <!-- Topf -->
  <g transform="translate(400, 500)">
    <path d="M-80 -100 L-60 100 L60 100 L80 -100 Z" fill="#92400e" />
    <ellipse cx="0" cy="-100" rx="80" ry="15" fill="#78350f" />
    <ellipse cx="0" cy="-100" rx="70" ry="10" fill="#451a03" />
  </g>
  
  <!-- Pflanze -->
  <g transform="translate(400, 400)">
    <!-- Stamm -->
    <rect x="-8" y="0" width="16" height="100" fill="#15803d" />
    
    <!-- Blätter -->
    <g fill="#22c55e">
      <path d="M0 -80 Q35 -40, 0 0 Q-35 -40, 0 -80" />
      <path d="M-10 -40 Q-45 -10, -30 20 Q-15 -5, -10 -40" />
      <path d="M10 -40 Q45 -10, 30 20 Q15 -5, 10 -40" />
      <path d="M0 -20 Q25 5, 0 30 Q-25 5, 0 -20" />
    </g>
  </g>
  
  <!-- Sonne -->
  <circle cx="650" cy="150" r="60" fill="#fef08a" opacity="0.8" />
  
  <!-- Text -->
  <text x="400" y="700" text-anchor="middle" fill="white" font-family="Arial, sans-serif" font-size="48" font-weight="bold">Anbau</text>
</svg>
